#!OML:ASF F:\VICON\USERDATA\INSTALL\rory3\rory3.ASF
:FULLY-SPECIFIED
:DEGREES
751
root 0.311762 17.3529 8.75492 3.93254 24.8563 -0.304157
lowerback 7.57339 3.81899 0.748823
upperback 1.47392 5.23442 2.64044
thorax -2.89033 2.61229 1.78067
lowerneck 2.787 -15.4242 -23.6766
upperneck -2.71985 -21.9952 27.9079
head 4.81978 -11.1038 10.9434
rclavicle 2.46493e-014 2.14687e-014
rhumerus -28.7103 -21.0394 -55.8218
rradius 38.1731
rwrist -6.26916
rhand -8.81809 23.3172
rfingers 7.12502
rthumb 17.1215 -5.94837
lclavicle 2.46493e-014 2.14687e-014
lhumerus -77.7357 35.053 10.5075
lradius 24.8733
lwrist 4.00137
lhand -9.83824 40.9892
lfingers 7.12502
lthumb 16.1394 -289.663
rfemur -29.4784 -8.63656 6.29222
rtibia 39.182
rfoot -10.4191 -19.5553
rtoes 31.5771
lfemur -3.20656 -6.67268 -20.181
ltibia 31.1824
lfoot -26.1634 -3.61459
ltoes 2.82876
752
root 0.280014 17.3533 8.80799 4.08301 24.9267 -0.113049
lowerback 7.43016 3.94816 0.632315
upperback 1.53554 5.39037 2.58747
thorax -2.75704 2.69098 1.78756
lowerneck 1.99416 -15.8932 -23.5011
upperneck -2.03137 -22.5803 27.3876
head 5.20063 -11.3091 10.5297
rclavicle -3.69739e-014 -1.66979e-014
rhumerus -28.8251 -22.2333 -56.0216
rradius 36.9459
rwrist -5.86066
rhand -8.60058 23.0557
rfingers 7.12502
rthumb 17.3309 -6.19161
lclavicle -3.69739e-014 -1.66979e-014
lhumerus -78.4918 35.3446 11.2898
lradius 24.3246
lwrist 4.07207
lhand -10.083 40.8697
lfingers 7.12502
lthumb 15.9038 -289.763
rfemur -28.7919 -9.24873 5.80111
rtibia 38.4195
rfoot -10.9134 -20.45
rtoes 33.1747
lfemur -3.16961 -6.6446 -20.1588
ltibia 31.1201
lfoot -26.3094 -3.70188
ltoes 2.02699
753
root 0.24164 17.3459 8.85839 4.31419 24.7369 -0.0289889
lowerback 7.19123 4.10976 0.484302
upperback 1.57007 5.58856 2.59066
thorax -2.60897 2.79129 1.87208
lowerneck 2.11978 -15.872 -23.5163
upperneck -2.39972 -22.5244 27.5982
head 5.09346 -11.3003 10.6301
rclavicle 7.13637e-014 -1.03368e-014
rhumerus -29.2604 -23.1507 -56.253
rradius 36.1458
rwrist -5.55409
rhand -8.52071 23.0027
rfingers 7.12502
rthumb 17.4078 -6.23783
lclavicle 7.13637e-014 -1.03368e-014
lhumerus -79.4008 35.6686 12.0122
lradius 23.8558
lwrist 4.13468
lhand -10.1713 40.9731
lfingers 7.12502
lthumb 15.8187 -289.653
rfemur -28.3003 -9.68888 5.56881
rtibia 37.6943
rfoot -11.1801 -21.268
rtoes 33.8713
lfemur -3.2759 -6.55209 -20.0319
ltibia 31.0773
lfoot -26.3011 -3.68287
ltoes 1.87259
754
root 0.206855 17.3462 8.90709 4.47382 24.444 -0.226169
lowerback 7.08461 4.26597 0.682416
upperback 1.47423 5.81255 2.63126
thorax -2.64072 2.90158 1.78675
lowerneck 2.47307 -15.7745 -23.6929
upperneck -2.84732 -22.4045 27.9082
head 4.94381 -11.28 10.8243
rclavicle 3.10104e-014 7.15625e-015
rhumerus -29.7703 -24.0246 -56.4341
rradius 35.0967
rwrist -4.78817
rhand -8.74995 23.1424
rfingers 7.12502
rthumb 17.1871 -6.11754
lclavicle 3.10104e-014 7.15625e-015
lhumerus -80.7872 36.0692 11.8922
lradius 23.4265
lwrist 3.92518
lhand -10.1527 41.1617
lfingers 7.12502
lthumb 15.8366 -289.466
rfemur -27.9693 -9.9793 5.64379
rtibia 36.9766
rfoot -11.5671 -22.1783
rtoes 32.6336
lfemur -3.39982 -6.51263 -19.6624
ltibia 31.0225
lfoot -26.312 -3.56177
ltoes 1.94471
755
root 0.177381 17.3535 8.95704 4.54053 24.3487 -0.410814
lowerback 7.08722 4.39285 1.03234
upperback 1.38303 6.00891 2.61632
thorax -2.70483 2.99592 1.55585
lowerneck 2.85041 -15.7392 -23.8504
upperneck -3.28547 -22.3835 28.2878
head 4.82765 -11.3102 11.0206
rclavicle -1.39149e-015 2.38542e-015
rhumerus -30.1191 -25.1332 -56.5191
rradius 33.7383
rwrist -3.96495
rhand -8.9462 22.9051
rfingers 7.12502
rthumb 16.9982 -6.37115
lclavicle -1.39149e-015 2.38542e-015
lhumerus -82.3867 36.6972 10.9854
lradius 22.8276
lwrist 3.08125
lhand -9.7247 40.9992
lfingers 7.12502
lthumb 16.2487 -289.662
rfemur -27.4769 -10.3142 5.63703
rtibia 36.2296
rfoot -11.9311 -23.0713
rtoes 31.9177
lfemur -3.43309 -6.62091 -19.3148
ltibia 31.0302
lfoot -26.3725 -3.50701
ltoes 1.85461
756
root 0.14186 17.3584 9.00175 4.54861 24.1205 -0.71741
lowerback 7.07964 4.55192 1.39534
upperback 1.3705 6.24962 2.68228
thorax -2.68799 3.11291 1.40165
lowerneck 3.02185 -15.7315 -23.8999
upperneck -3.61038 -22.3614 28.4772
head 4.73581 -11.3211 11.1166
rclavicle 7.69297e-014 -7.15625e-015
rhumerus -30.4218 -26.0217 -56.6559
rradius 32.6326
rwrist -3.6642
rhand -8.9334 22.3532
rfingers 7.12502
rthumb 17.0105 -6.92196
lclavicle 7.69297e-014 -7.15625e-015
lhumerus -84.1945 37.5363 9.80443
lradius 22.1822
lwrist 1.8466
lhand -9.31041 40.4222
lfingers 7.12502
lthumb 16.6476 -290.272
rfemur -27.0082 -10.2429 5.75993
rtibia 35.4572
rfoot -12.5194 -24.0772
rtoes 32.7319
lfemur -3.45955 -6.64583 -18.8428
ltibia 31.0361
lfoot -26.3298 -3.32371
ltoes 1.43789
757
root 0.103622 17.3598 9.03922 4.65116 23.4967 -0.999125
lowerback 7.11662 4.82666 1.67959
upperback 1.2899 6.64164 2.73975
thorax -2.77375 3.30464 1.2608
lowerneck 3.19388 -15.7291 -23.9066
upperneck -3.82199 -22.352 28.4837
head 4.64512 -11.334 11.1403
rclavicle -2.8625e-014 -1.59028e-015
rhumerus -30.8996 -26.7969 -56.7713
rradius 31.6428
rwrist -3.28988
rhand -9.10915 22.2648
rfingers 7.12502
rthumb 16.8414 -7.02491
lclavicle -2.8625e-014 -1.59028e-015
lhumerus -85.5698 38.0735 9.30563
lradius 21.5535
lwrist 1.16301
lhand -8.9433 40.0118
lfingers 7.12502
lthumb 17.001 -290.712
rfemur -26.7889 -9.85042 5.91781
rtibia 34.7028
rfoot -13.0881 -25.0063
rtoes 33.2244
lfemur -3.51633 -6.56363 -18.4821
ltibia 30.9909
lfoot -26.2407 -2.79032
ltoes 0.487801
758
root 0.0710028 17.3646 9.07776 4.88663 22.6974 -1.13913
lowerback 7.11543 5.21342 1.93504
upperback 1.17891 7.17703 2.70548
thorax -2.85977 3.56663 1.03073
lowerneck 3.07167 -15.8879 -24.0658
upperneck -3.76394 -22.5736 28.5174
head 4.76479 -11.4296 11.1106
rclavicle -3.06128e-014 -3.02153e-014
rhumerus -31.5737 -27.9695 -56.6793
rradius 30.8156
rwrist -2.51101
rhand -9.51762 22.3623
rfingers 7.12502
rthumb 16.4481 -6.96041
lclavicle -3.06128e-014 -3.02153e-014
lhumerus -86.4987 38.5704 9.28786
lradius 20.922
lwrist 0.450564
lhand -8.75429 39.8957
lfingers 7.12502
lthumb 17.1829 -290.844
rfemur -26.7654 -9.51315 5.96784
rtibia 34.0555
rfoot -13.1661 -25.7143
rtoes 33.4401
lfemur -3.52944 -6.54088 -18.3629
ltibia 30.8181
lfoot -26.1588 -2.02204
ltoes -0.858894
759
root 0.0314099 17.3765 9.13389 5.00316 22.2271 -1.42702
lowerback 6.97219 5.47597 2.25469
upperback 1.15591 7.54533 2.71408
thorax -2.76737 3.74754 0.846244
lowerneck 2.72019 -16.0315 -24.2208
upperneck -3.65198 -22.7451 28.6479
head 4.94199 -11.4831 11.1016
rclavicle -7.77248e-014 1.19271e-014
rhumerus -32.144 -29.1046 -56.7238
rradius 30.1544
rwrist -2.17303
rhand -9.7661 22.2064
rfingers 7.12502
rthumb 16.2089 -7.136
lclavicle -7.77248e-014 1.19271e-014
lhumerus -87.0087 39.0967 9.87144
lradius 20.402
lwrist -0.098683
lhand -8.94897 39.7668
lfingers 7.12502
lthumb 16.9956 -290.957
rfemur -26.5042 -9.16459 6.19966
rtibia 33.4128
rfoot -13.5251 -26.6394
rtoes 34.4896
lfemur -3.44808 -6.63886 -17.981
ltibia 30.678
lfoot -26.0987 -1.45793
ltoes -2.2267
760
root -0.00164653 17.3758 9.2156 4.9397 22.4971 -0.95679
lowerback 6.94345 5.35061 1.92231
upperback 1.29806 7.34445 2.61711
thorax -2.63225 3.65228 0.956788
lowerneck 2.37403 -16.0663 -24.185
upperneck -3.52513 -22.7439 28.5933
head 5.02377 -11.4524 11.0435
rclavicle 1.27023e-013 4.29375e-014
rhumerus -32.5317 -29.6558 -57.083
rradius 29.95
rwrist -1.90286
rhand -9.49631 21.2038
rfingers 7.12502
rthumb 16.4686 -8.11725
lclavicle 1.27023e-013 4.29375e-014
lhumerus -87.1087 39.2928 11.3389
lradius 20.1171
lwrist 0.470205
lhand -9.004 39.769
lfingers 7.12502
lthumb 16.9426 -290.95
rfemur -25.4352 -9.82095 5.62825
rtibia 32.954
rfoot -14.4035 -27.1182
rtoes 35.9614
lfemur -2.71825 -7.02031 -18.2825
ltibia 30.3139
lfoot -25.9608 -1.39551
ltoes -3.51287
761
root -0.0596161 17.392 9.26414 4.92029 22.0144 -1.9638
lowerback 7.14877 5.45277 2.76057
upperback 0.945472 7.57174 2.79568
thorax -3.02972 3.75065 0.622791
lowerneck 2.30647 -16.0597 -23.9925
upperneck -3.40621 -22.7127 28.29
head 4.98774 -11.4273 10.9129
rclavicle 7.73272e-014 -6.36111e-015
rhumerus -32.943 -30.3828 -57.2606
rradius 28.7306
rwrist -1.00092
rhand -9.88096 21.5027
rfingers 7.12502
rthumb 16.0983 -7.84864
lclavicle 7.73272e-014 -6.36111e-015
lhumerus -87.7359 39.3638 11.8288
lradius 19.8221
lwrist 0.735128
lhand -8.71138 39.7666
lfingers 7.12502
lthumb 17.2242 -290.977
rfemur -25.3962 -8.68509 6.73868
rtibia 32.5082
rfoot -15.8092 -28.3011
rtoes 37.9103
lfemur -2.84332 -6.92213 -16.9854
ltibia 30.0304
lfoot -25.7018 -1.11371
ltoes -4.98262
762
root -0.081416 17.378 9.36145 4.99156 21.8638 -0.987216
lowerback 7.2223 5.48989 2.06143
upperback 0.958047 7.55733 2.49423
thorax -3.10606 3.74845 0.687473
lowerneck 2.40759 -16.0072 -23.9059
upperneck -3.40766 -22.6506 28.2252
head 4.93295 -11.4042 10.9032
rclavicle -4.51241e-014 -3.18055e-015
rhumerus -33.6644 -31.0452 -57.3724
rradius 27.9251
rwrist -0.724172
rhand -9.79845 21.5783
rfingers 7.12502
rthumb 16.1777 -7.76663
lclavicle -4.51241e-014 -3.18055e-015
lhumerus -88.2826 39.5233 12.0547
lradius 19.3864
lwrist 0.887306
lhand -8.79718 39.4694
lfingers 7.12502
lthumb 17.1417 -291.267
rfemur -24.369 -9.56983 5.7258
rtibia 32.1622
rfoot -16.2322 -27.9277
rtoes 37.9123
lfemur -2.00144 -7.33499 -18.014
ltibia 29.7898
lfoot -25.7683 -0.770494
ltoes -5.95995
763
root -0.134645 17.3795 9.43247 5.25918 21.2995 -1.03587
lowerback 6.96696 5.62065 1.92397
upperback 0.897706 7.71543 2.52584
thorax -3.04955 3.83 0.801933
lowerneck 1.98144 -16.0023 -23.9965
upperneck -3.21483 -22.5978 28.2066
head 5.05542 -11.341 10.8796
rclavicle -2.42517e-014 2.8625e-014
rhumerus -33.9715 -31.6582 -57.6534
rradius 27.1548
rwrist -0.188605
rhand -10.1657 21.9962
rfingers 7.12502
rthumb 15.8241 -7.37706
lclavicle -2.42517e-014 2.8625e-014
lhumerus -87.8779 39.7604 14.1033
lradius 19.0822
lwrist 2.07555
lhand -9.22519 39.3149
lfingers 7.12502
lthumb 16.7297 -291.386
rfemur -24.2708 -9.06539 5.97311
rtibia 31.8088
rfoot -17.2197 -28.4797
rtoes 38.4802
lfemur -2.00379 -7.55804 -17.8238
ltibia 29.695
lfoot -25.7408 -0.397958
ltoes -6.64476
